<?xml version="1.0" encoding="UTF-8" standalone="no"?>
<!-- Created with Inkscape (http://www.inkscape.org/) -->

<svg
   version="1.1"
   id="svg2"
   xml:space="preserve"
   width="16"
   height="16"
   viewBox="0 0 41.216801 41.835335"
   sodipodi:docname="annotated pdf-button.ai.svg"
   inkscape:version="1.1 (ce6663b3b7, 2021-05-25)"
   xmlns:inkscape="http://www.inkscape.org/namespaces/inkscape"
   xmlns:sodipodi="http://sodipodi.sourceforge.net/DTD/sodipodi-0.dtd"
   xmlns="http://www.w3.org/2000/svg"
   xmlns:svg="http://www.w3.org/2000/svg"><defs
     id="defs6"><clipPath
       clipPathUnits="userSpaceOnUse"
       id="clipPath16"><path
         d="M 0,31.376 H 30.913 V 0 H 0 Z"
         id="path14" /></clipPath></defs><sodipodi:namedview
     id="namedview4"
     pagecolor="#ffffff"
     bordercolor="#666666"
     borderopacity="1.0"
     inkscape:pageshadow="2"
     inkscape:pageopacity="0.0"
     inkscape:pagecheckerboard="0"
     showgrid="false"
     inkscape:zoom="20.174334"
     inkscape:cx="20.62026"
     inkscape:cy="20.892883"
     inkscape:window-width="1848"
     inkscape:window-height="1016"
     inkscape:window-x="2632"
     inkscape:window-y="775"
     inkscape:window-maximized="1"
     inkscape:current-layer="g8" /><g
     id="g8"
     inkscape:groupmode="layer"
     inkscape:label="annotated pdf-button"
     transform="matrix(1.3333333,0,0,-1.3333333,0,41.835333)"><g
       id="g10"><g
         id="g12"
         clip-path="url(#clipPath16)"><g
           id="g18"
           transform="translate(18.7056,23.3418)"><path
             d="M 0,0 H 2.711 C 2.398,0.496 1.887,0.909 1.441,1.361 0.987,1.825 0.535,2.306 0.104,2.76 0.061,2.762 0.057,2.804 0,2.794 Z m -7.444,3.354 c -0.606,0 -1.515,0.155 -2.127,0 C -10.026,3.237 -9.88,2.244 -9.88,1.536 v -11.874 c 0,-0.66 -0.075,-1.359 0.103,-1.886 3.13,-0.129 6.601,-0.069 9.812,-0.069 1.087,0 2.18,-0.087 3.191,0.103 0.137,3.541 0.068,7.474 0.034,11.072 h -4.357 v 4.436 c -2.06,0.064 -4.244,0.036 -6.347,0.036 m -2.274,1.087 c 2.973,0 5.85,-0.016 8.772,-0.016 C 0.505,4.19 1.287,3.195 2.23,2.235 3.094,1.357 4.145,0.567 4.357,-0.978 4.482,-1.882 4.393,-2.928 4.393,-3.946 v -5.938 c 0,-1.512 0.271,-3.325 -1.065,-3.528 H -9.915 c -0.463,0.173 -0.834,0.419 -0.995,0.943 -0.132,0.433 -0.068,1.327 -0.068,2.026 V 1.502 c 0,0.72 -0.094,1.5 0.034,1.991 0.131,0.502 0.74,0.942 1.226,0.948"
             style="fill:#000000;fill-opacity:1;fill-rule:evenodd;stroke:none"
             id="path20" /></g><g
           id="g22"
           transform="translate(19.0493,16.251)"><path
             d="M 0,0 C 0.522,-0.158 1.632,-0.435 2.023,-0.034 2.262,0.207 2.323,0.749 2.195,1.084 1.857,1.97 -0.459,1.596 -1.373,1.502 -2.524,2.17 -3.274,3.245 -3.774,4.576 -3.64,5.158 -3.542,5.844 -3.465,6.567 -3.387,7.31 -3.383,8.203 -3.877,8.419 -4.21,8.563 -4.844,8.445 -5.009,8.173 -5.297,7.701 -5.146,6.789 -5.043,6.147 -4.993,5.835 -4.909,5.517 -4.837,5.205 -4.766,4.891 -4.619,4.483 -4.632,4.262 -4.65,3.938 -4.94,3.512 -5.112,3.145 -5.67,1.951 -6.194,0.941 -6.759,-0.069 -7.357,-0.36 -7.885,-0.646 -8.44,-1.082 -8.81,-1.373 -9.687,-2.03 -9.503,-2.759 c 0.083,-0.334 0.723,-0.531 1.097,-0.454 1.218,0.252 1.861,2.157 2.539,2.969 1.299,0.424 2.694,0.751 4.152,1.014 C -1.215,0.477 -0.674,0.206 0,0 m -1.17,10.827 c 0,-1.594 -0.023,-2.702 -0.023,-4.298 1.564,0 3.023,-0.051 4.587,-0.051 0.037,-3.88 0.007,-8.227 -0.039,-12.025 -1.115,-0.022 -2.24,-0.004 -3.411,0 -3.482,0.013 -7.178,-0.03 -10.529,0 -0.191,0.569 -0.184,0.911 -0.184,1.622 V 8.881 c 0,0.763 -0.157,1.834 0.332,1.959 0.659,0.169 1.657,0.056 2.308,0.056 2.263,0 4.743,0 6.959,-0.069"
             style="fill:#ffffff;fill-opacity:1;fill-rule:evenodd;stroke:none"
             id="path24" /></g><g
           id="g26"
           transform="translate(18.5005,26.8086)"><path
             d="m 0,0 c 0.069,0.012 0.074,-0.04 0.129,-0.043 0.538,-0.562 1.1,-1.159 1.666,-1.734 0.555,-0.561 1.193,-1.074 1.582,-1.69 l -3.377,0 z"
             style="fill:#ffffff;fill-opacity:1;fill-rule:evenodd;stroke:none"
             id="path28" /></g><g
           id="g30"
           transform="translate(10.3687,13.667)"><path
             d="M 0,0 C 0.587,0.461 1.129,1.156 1.442,1.781 0.939,1.232 0.223,0.718 0,0 M 10.464,3.144 C 10.327,3.633 9.148,3.55 8.476,3.492 9.05,3.342 9.765,2.822 10.464,3.144 M 3.157,3.073 C 4.1,3.406 5.112,3.668 6.142,3.912 5.418,4.386 4.973,5.144 4.46,5.833 4.115,4.823 3.637,3.947 3.157,3.073 M 4.598,8.348 C 4.858,8.93 5.001,10.228 4.46,10.618 4.322,9.921 4.383,8.907 4.598,8.348 M 6.965,3.354 C 5.508,3.091 4.113,2.764 2.814,2.34 2.136,1.528 1.492,-0.377 0.275,-0.629 c -0.374,-0.077 -1.014,0.12 -1.098,0.454 -0.183,0.729 0.694,1.386 1.064,1.677 0.555,0.436 1.082,0.722 1.68,1.013 0.566,1.01 1.09,2.02 1.648,3.214 C 3.74,6.096 4.03,6.522 4.049,6.846 4.062,7.067 3.915,7.475 3.843,7.789 3.772,8.101 3.688,8.419 3.637,8.731 3.535,9.373 3.383,10.285 3.671,10.757 3.837,11.029 4.47,11.146 4.804,11.003 5.297,10.787 5.294,9.894 5.215,9.151 5.139,8.428 5.041,7.742 4.907,7.16 5.407,5.829 6.157,4.754 7.308,4.086 8.222,4.18 10.538,4.554 10.876,3.668 11.004,3.333 10.942,2.791 10.704,2.55 10.313,2.149 9.203,2.426 8.681,2.584 8.007,2.79 7.466,3.061 6.965,3.354"
             style="fill:#84bd9f;fill-opacity:1;fill-rule:evenodd;stroke:none"
             id="path32" /></g><g
           id="g34"
           transform="translate(14.8291,24.2852)"><path
             d="M 0,0 C 0.541,-0.391 0.397,-1.688 0.138,-2.271 -0.078,-1.711 -0.139,-0.697 0,0"
             style="fill:#ffffff;fill-opacity:1;fill-rule:evenodd;stroke:none"
             id="path36" /></g><g
           id="g38"
           transform="translate(14.8291,19.5)"><path
             d="M 0,0 C 0.512,-0.689 0.958,-1.447 1.682,-1.921 0.651,-2.165 -0.36,-2.427 -1.304,-2.76 -0.824,-1.886 -0.346,-1.01 0,0"
             style="fill:#ffffff;fill-opacity:1;fill-rule:evenodd;stroke:none"
             id="path40" /></g><g
           id="g42"
           transform="translate(18.8442,17.1592)"><path
             d="M 0,0 C 0.673,0.058 1.852,0.141 1.988,-0.349 1.289,-0.67 0.574,-0.15 0,0"
             style="fill:#ffffff;fill-opacity:1;fill-rule:evenodd;stroke:none"
             id="path44" /></g><g
           id="g46"
           transform="translate(11.8105,15.4482)"><path
             d="M 0,0 C -0.313,-0.625 -0.854,-1.32 -1.442,-1.781 -1.219,-1.063 -0.503,-0.549 0,0"
             style="fill:#ffffff;fill-opacity:1;fill-rule:evenodd;stroke:none"
             id="path48" /></g><g
           id="g50"
           transform="translate(27.5317,9.9473)"><path
             d="m 0,0 c -4.213,0.315 -9.182,-0.004 -11.293,-2.354 -1.066,0.976 -0.448,3.328 0.605,4.216 1.077,0.91 3.69,0.803 5.143,1.079 C -3.999,2.053 -1.594,1.165 0,0"
             style="fill:#84bd9f;fill-opacity:1;fill-rule:evenodd;stroke:none"
             id="path52" /></g><g
           id="g54"
           transform="translate(19.7681,7.2998)"><path
             d="M 0,0 C 1.783,0.506 4.484,0.333 6.352,-0.099 4.672,0.395 1.617,0.891 0,0 M 8.771,0.49 C 5.967,0.677 2.054,1.109 -0.908,0.588 -1.504,0.484 -2.283,0.485 -2.622,0 0.652,0.758 5.488,0.645 9.176,0 9.268,-0.466 9.287,-1.493 9.289,-1.783 8.146,-1.712 1.403,-0.968 -2.622,-1.078 -2.845,-0.772 -3.101,-0.499 -3.227,-0.099 -2.084,1.416 0.923,2.37 3.832,2.45 4.567,2.472 5.84,2.536 6.352,2.353 7.105,2.085 7.979,0.834 8.771,0.49"
             style="fill:#ffffff;fill-opacity:1;fill-rule:evenodd;stroke:none"
             id="path56" /></g><g
           id="g58"
           transform="translate(14.4238,8.2803)"><path
             d="m 0,0 c -3.408,0.488 -7.314,-0.43 -10.587,-0.98 1.379,1.535 4.658,1.221 6.755,2.058 C -2.607,0.668 -1.311,0.329 0,0"
             style="fill:#84bd9f;fill-opacity:1;fill-rule:evenodd;stroke:none"
             id="path60" /></g><g
           id="g62"
           transform="translate(15.4321,7.79)"><path
             d="M 0,0 C -0.271,-0.225 -0.611,0.317 -1.11,0.197 -0.859,0.575 -0.363,0.092 0,0"
             style="fill:#ffffff;fill-opacity:1;fill-rule:evenodd;stroke:none"
             id="path64" /></g><g
           id="g66"
           transform="translate(5.4492,6.7109)"><path
             d="M 0,0 C 0.392,0.628 1.584,0.564 2.521,0.688 3.767,0.85 4.875,1.089 6.353,1.079 6.278,0.858 5.787,1.041 5.547,0.981 3.776,0.629 1.147,0.638 0,0"
             style="fill:#000000;fill-opacity:1;fill-rule:evenodd;stroke:none"
             id="path68" /></g><g
           id="g70"
           transform="translate(26.1196,7.2012)"><path
             d="M 0,0 C -1.867,0.432 -4.568,0.604 -6.352,0.099 -4.734,0.989 -1.68,0.493 0,0"
             style="fill:#000000;fill-opacity:1;fill-rule:evenodd;stroke:none"
             id="path72" /></g><g
           id="g74"
           transform="translate(16.2388,7.3984)"><path
             d="M 0,0 C 0.147,-0.739 0.441,-1.337 1.209,-1.471 0.938,-2.538 -1.501,-1.974 -1.513,-1.373 -0.993,-0.93 -0.79,-0.181 0,0"
             style="fill:#ffffff;fill-opacity:1;fill-rule:evenodd;stroke:none"
             id="path76" /></g><g
           id="g78"
           transform="translate(14.6035,5.8447)"><path
             d="m 0,0 c 0.113,-0.298 0.25,-0.313 -0.784,-0.309 -2.819,0.011 -6.753,0.184 -9.781,0.098 2.227,0.269 5.383,0.411 7.886,0.478 C -0.359,0.328 -0.186,0.653 0,0"
             style="fill:#ffffff;fill-opacity:1;fill-rule:evenodd;stroke:none"
             id="path80" /></g><g
           id="g82"
           transform="translate(21.7856,5.8291)"><path
             d="M 0,0 C -0.803,-0.879 -2.78,-0.029 -4.236,-0.293 -4.183,-0.215 -4.132,-0.135 -4.135,0 -3.211,0.071 -1.473,-0.04 0,0"
             style="fill:#ffffff;fill-opacity:1;fill-rule:evenodd;stroke:none"
             id="path84" /></g><g
           id="g86"
           transform="translate(21.7856,5.4375)"><path
             d="M 0,0 C 0.629,-0.707 -0.013,-1.789 -0.304,-2.451 -0.55,-1.688 -0.406,-0.458 0,0"
             style="fill:#ffffff;fill-opacity:1;fill-rule:evenodd;stroke:none"
             id="path88" /></g><g
           id="g90"
           transform="translate(5.248,5.1436)"><path
             d="M 0,0 H 0.302 C 0.389,-0.352 0.587,-1.379 0.201,-1.569 -0.244,-1.414 0.116,-0.476 0,0"
             style="fill:#000000;fill-opacity:1;fill-rule:evenodd;stroke:none"
             id="path92" /></g><g
           id="g94"
           transform="translate(6.0547,5.1436)"><path
             d="M 0,0 H 0.403 C 0.387,-0.792 0.369,-0.998 0.403,-1.766 -0.309,-1.739 0.111,-0.612 0,0"
             style="fill:#000000;fill-opacity:1;fill-rule:evenodd;stroke:none"
             id="path96" /></g><g
           id="g98"
           transform="translate(5.248,12.4961)"><path
             d="m 0,0 c 0.373,0.455 0.974,0.688 1.21,1.274 3.595,-1.47 7.519,-2.624 9.277,-5.882 -0.421,0.274 -0.98,0.501 -1.512,0.784 C 6.559,-2.537 3.627,-0.599 0,0"
             style="fill:#84bd9f;fill-opacity:1;fill-rule:evenodd;stroke:none"
             id="path100" /></g><g
           id="g102"
           transform="translate(21.4819,2.9863)"><path
             d="M 0,0 C 0.291,0.662 0.933,1.744 0.304,2.451 -0.103,1.993 -0.246,0.764 0,0 m -13.814,0.49 c -0.085,0.282 0.059,1.183 0,1.764 -1.292,0.132 -3.159,0.177 -4.336,0.099 V 0.392 C -12.883,0.405 -8.555,-0.119 -2.823,0 -2.893,0.385 -3.14,1.552 -2.723,1.765 -2.531,1.297 -2.649,0.527 -2.521,0 h 2.219 c 0.016,0.703 -0.06,1.496 0.101,2.059 -4.164,0.022 -8.399,0.258 -13.008,0.195 -0.156,-0.534 0.339,-1.701 -0.303,-1.764 0.182,0.518 0.029,0.017 -0.302,0 m 9.982,2.353 C -3.828,2.708 -3.879,2.628 -3.933,2.55 c 1.456,0.263 3.434,-0.586 4.237,0.293 -1.473,-0.04 -3.211,0.071 -4.136,0 m -6.229,0.21 c -2.501,-0.115 -5.155,-0.137 -7.383,-0.406 3.028,0.086 6.924,-0.088 9.807,-0.03 0.009,0 1.249,-0.163 0.679,0.226 -0.101,0.591 0.103,0.263 -1.519,0.21 -0.105,-0.004 -1.512,0.003 -1.584,0 M -6.756,3.039 C -6.744,2.438 -4.305,1.874 -4.034,2.941 -4.802,3.075 -5.096,3.673 -5.243,4.412 -6.033,4.231 -6.236,3.482 -6.756,3.039 M -7.16,5.001 c 0.499,0.12 0.839,-0.422 1.11,-0.197 -0.363,0.092 -0.859,0.575 -1.11,0.197 M -17.746,4.02 c -0.225,-0.327 -1.184,-0.914 -0.908,-1.079 2.706,0.074 5.695,0.27 8.469,0.392 1.548,0.069 3.411,-0.067 4.135,0.98 -3.22,1.824 -7.989,0.04 -11.696,-0.293 m 6.856,2.352 c -2.097,-0.837 -5.377,-0.523 -6.756,-2.059 3.274,0.551 7.18,1.469 10.588,0.981 -1.311,0.329 -2.607,0.668 -3.832,1.078 M 4.638,6.666 C 4.126,6.85 2.854,6.785 2.118,6.764 -0.791,6.684 -3.798,5.729 -4.941,4.215 -4.815,3.814 -4.559,3.541 -4.336,3.235 -0.311,3.346 4.434,2.796 7.919,2.572 7.651,2.574 7.894,2.806 7.765,2.941 7.69,3.424 7.554,3.848 7.462,4.313 c -3.688,0.645 -8.524,0.758 -11.798,0 0.339,0.486 1.118,0.485 1.714,0.588 C 0.34,5.423 4.253,4.99 7.058,4.804 6.265,5.147 5.392,6.398 4.638,6.666 m -16.335,1.177 c -1.437,0.595 -2.97,1.098 -4.739,1.373 -0.248,-0.473 -0.797,-0.856 -0.605,-1.471 3.448,-0.195 6.11,-1.074 8.774,-1.667 -1.088,0.479 -2.152,0.982 -3.127,1.569 -0.016,-0.116 0.018,-0.279 -0.101,-0.293 -1.173,0.577 -2.297,0.983 -3.025,0.685 0.401,-0.116 0.895,-0.226 1.714,-0.489 0.251,-0.128 0.809,-0.079 0.606,-0.393 -0.919,0.382 -2.871,0.775 -3.298,0.862 -0.305,0.035 -1.056,0.082 -1.039,0.315 0.665,0.042 1.681,-0.458 2.118,0 -0.234,0.031 -1.239,0.127 -1.31,0.489 1.463,-0.144 2.827,-0.91 4.032,-0.98 M 0.505,9.902 C -0.948,9.626 -3.562,9.733 -4.638,8.823 -5.691,7.935 -6.309,5.583 -5.243,4.607 -3.132,6.957 1.837,7.276 6.05,6.961 4.456,8.126 2.051,9.014 0.505,9.902 M -7.259,5.686 c 0.532,-0.284 1.091,-0.51 1.512,-0.785 -1.757,3.259 -5.682,4.412 -9.277,5.883 -0.236,-0.587 -0.837,-0.819 -1.21,-1.274 3.627,-0.599 6.559,-2.537 8.975,-3.824 m 1.108,0.588 C -5.823,6.781 -6,7.334 -5.747,7.843 -4.814,9.725 -2.56,9.985 0,10.099 1.103,10.147 1.009,9.934 1.815,9.51 3.544,8.604 6.123,7.959 6.958,6.569 H 5.243 C 6.384,5.641 7.901,5.116 7.874,3.331 7.864,3.106 7.919,2.93 7.827,2.528 5.855,2.305 3.394,2.864 0.706,2.843 0.88,1.021 0.839,0.827 0.153,-0.546 c -6.351,0.033 -12.443,0.36 -18.716,0.471 0.004,0.878 -0.012,1.638 -0.082,2.587 -0.46,-0.04 -0.662,-0.014 -1.219,0.038 0.974,1.143 2.218,2.027 3.327,3.038 1.756,0.188 3.245,0.638 4.941,0.884 -1.623,0.708 -4.024,0.661 -5.949,1.078 0.079,0.842 0.381,0.877 0.403,1.372 0.298,0.499 1.345,1.343 2.017,2.059 3.524,-1.05 6.629,-2.51 8.974,-4.707"
             style="fill:#000000;fill-opacity:1;fill-rule:evenodd;stroke:none"
             id="path104" /></g><g
           id="g106"
           transform="translate(5.7524,11.8096)"><path
             d="m 0,0 c 0.072,-0.362 1.077,-0.458 1.311,-0.489 -0.136,-0.452 -1.454,0.042 -2.118,0 -0.014,-0.187 0.752,-0.271 1.077,-0.331 0.476,-0.101 2.486,-0.409 3.259,-0.846 0.204,0.313 -0.355,0.265 -0.605,0.393 -0.193,0.08 -0.583,0.171 -0.659,0.198 -0.259,0.088 -1.057,0.274 -1.329,0.339 0.492,0.329 1.935,-0.058 3.299,-0.734 0.119,0.015 0.085,0.178 0.1,0.294 0.975,-0.588 2.039,-1.091 3.127,-1.569 -2.663,0.593 -5.326,1.472 -8.773,1.667 -0.192,0.615 0.356,0.998 0.605,1.471 C 1.063,0.118 2.596,-0.385 4.033,-0.98 2.827,-0.91 1.464,-0.145 0,0"
             style="fill:#ffffff;fill-opacity:1;fill-rule:evenodd;stroke:none"
             id="path108" /></g><g
           id="g110"
           transform="translate(6.458,3.3779)"><path
             d="M 0,0 C -0.034,0.768 -0.017,0.974 0,1.766 H -0.403 C -0.292,1.153 -0.712,0.026 0,0 m -1.009,0.196 c 0.386,0.191 0.188,1.218 0.101,1.57 H -1.21 C -1.094,1.29 -1.454,0.352 -1.009,0.196 M 1.512,0.099 C 2.154,0.161 1.659,1.328 1.815,1.862 6.464,1.847 10.724,1.748 14.865,1.686 14.703,1.123 14.738,0.312 14.722,-0.392 h -2.219 c -0.128,0.528 -0.01,1.297 -0.202,1.765 -0.417,-0.213 -0.17,-1.38 -0.1,-1.765 C 6.469,-0.511 2.141,0.014 -3.126,0 v 1.961 c 1.177,0.078 3.043,0.033 4.336,-0.099 0.059,-0.581 -0.085,-1.481 0,-1.763 0.331,0.016 0.434,2.507 0.302,0"
             style="fill:#ffffff;fill-opacity:1;fill-rule:evenodd;stroke:none"
             id="path112" /></g><g
           id="g114"
           transform="translate(10.9961,7.6924)"><path
             d="M 0,0 C 0.24,0.06 0.731,-0.123 0.806,0.098 -0.672,0.107 -1.78,-0.132 -3.026,-0.294 -3.962,-0.417 -5.155,-0.354 -5.547,-0.981 -4.399,-0.344 -1.771,-0.353 0,0 M 4.436,-0.393 C 3.712,-1.44 1.849,-1.304 0.301,-1.373 c -2.775,-0.122 -5.763,-0.318 -8.469,-0.392 -0.276,0.165 0.683,0.752 0.908,1.078 3.707,0.333 8.476,2.118 11.696,0.294"
             style="fill:#ffffff;fill-opacity:1;fill-rule:evenodd;stroke:none"
             id="path116" /></g><g
           id="g118"
           transform="translate(29.2231,6.1807)"><path
             d="m 0,0 c -0.453,0.125 -0.948,0.199 -1.426,0.272 -0.09,0.013 -0.18,0.027 -0.271,0.041 -2.3,0.356 -4.05,0.526 -5.51,0.535 V 0.945 C -5.742,0.938 -3.986,0.768 -1.68,0.41 -1.591,0.396 -1.5,0.383 -1.41,0.368 -0.93,0.296 -0.433,0.222 0.028,0.095 Z"
             style="fill:#000000;fill-opacity:1;fill-rule:nonzero;stroke:none"
             id="path120" /></g><g
           id="g122"
           transform="translate(3.0918,6.1318)"><path
             d="M 0,0 C 0.538,0.126 1.121,0.2 1.686,0.272 1.792,0.285 1.899,0.3 2.005,0.313 4.722,0.669 6.791,0.839 8.515,0.848 L 8.514,0.945 C 6.784,0.938 4.709,0.767 1.987,0.41 1.881,0.396 1.774,0.383 1.667,0.368 1.099,0.296 0.512,0.222 -0.032,0.095 Z"
             style="fill:#000000;fill-opacity:1;fill-rule:nonzero;stroke:none"
             id="path124" /></g><g
           id="g126"
           transform="translate(29.3892,2.0674)"><path
             d="m 0,0 c 0,-0.227 -0.152,-0.409 -0.342,-0.409 h -27.662 c -0.19,0 -0.343,0.182 -0.343,0.409 v 27.528 c 0,0.227 0.153,0.409 0.343,0.409 H -0.342 C -0.152,27.937 0,27.755 0,27.528 Z"
             style="fill:none;stroke:#772e18;stroke-width:1;stroke-linecap:butt;stroke-linejoin:miter;stroke-miterlimit:10;stroke-dasharray:none;stroke-opacity:1"
             id="path128" /></g><g
           id="g130"
           transform="translate(15.522,12.0762)"><path
             d="M 0,0 -0.01,0.096 11.979,1.955 12.035,1.683 Z"
             style="fill:#ffffff;fill-opacity:1;fill-rule:evenodd;stroke:none"
             id="path132" /></g><g
           id="g134"
           transform="translate(15.6528,12.1426)"><path
             d="M 0,0 C 1.133,0.327 8.281,1.248 11.825,1.797 11.832,1.76 11.859,1.717 11.865,1.68 9.242,1.274 1.427,0.146 0,0 M 12.115,2.022 C 8.633,1.43 1.344,0.495 -1.949,-0.088 c -0.6,-0.107 -0.793,-0.292 -1.407,-0.451 0.669,0.025 0.942,-0.128 1.421,-0.067 2.815,0.359 11.48,1.568 14.203,1.966 -0.02,0.123 -0.135,0.54 -0.153,0.662"
             style="fill:#000000;fill-opacity:1;fill-rule:evenodd;stroke:none"
             id="path136" /></g></g></g></g></svg>
