<?xml version="1.0" encoding="UTF-8" standalone="no"?>
<!-- Created with Inkscape (http://www.inkscape.org/) -->

<svg
   version="1.1"
   id="svg2"
   xml:space="preserve"
   width="16"
   height="16"
   viewBox="0 0 41.216801 41.835335"
   sodipodi:docname="annotated pdf-mouse over.ai.svg"
   inkscape:version="1.1 (ce6663b3b7, 2021-05-25)"
   xmlns:inkscape="http://www.inkscape.org/namespaces/inkscape"
   xmlns:sodipodi="http://sodipodi.sourceforge.net/DTD/sodipodi-0.dtd"
   xmlns="http://www.w3.org/2000/svg"
   xmlns:svg="http://www.w3.org/2000/svg"><defs
     id="defs6"><clipPath
       clipPathUnits="userSpaceOnUse"
       id="clipPath16"><path
         d="M 0,31.376 H 30.913 V 0 H 0 Z"
         id="path14" /></clipPath></defs><sodipodi:namedview
     id="namedview4"
     pagecolor="#ffffff"
     bordercolor="#666666"
     borderopacity="1.0"
     inkscape:pageshadow="2"
     inkscape:pageopacity="0.0"
     inkscape:pagecheckerboard="0"
     showgrid="false"
     inkscape:zoom="20.174334"
     inkscape:cx="20.62026"
     inkscape:cy="20.892883"
     inkscape:window-width="1848"
     inkscape:window-height="1016"
     inkscape:window-x="2632"
     inkscape:window-y="775"
     inkscape:window-maximized="1"
     inkscape:current-layer="g8" /><g
     id="g8"
     inkscape:groupmode="layer"
     inkscape:label="annotated pdf-mouse over"
     transform="matrix(1.3333333,0,0,-1.3333333,0,41.835333)"><g
       id="g10"><g
         id="g12"
         clip-path="url(#clipPath16)"><g
           id="g18"
           transform="translate(19.0396,23.5918)"><path
             d="M 0,0 H 2.711 C 2.398,0.496 1.887,0.909 1.441,1.361 0.986,1.825 0.535,2.306 0.104,2.76 0.06,2.762 0.056,2.804 0,2.794 Z m -7.445,3.354 c -0.606,0 -1.515,0.155 -2.127,0 -0.455,-0.117 -0.309,-1.11 -0.309,-1.818 v -11.874 c 0,-0.66 -0.075,-1.359 0.103,-1.886 3.13,-0.129 6.602,-0.069 9.812,-0.069 1.087,0 2.181,-0.087 3.191,0.103 0.138,3.541 0.068,7.474 0.035,11.072 h -4.358 v 4.436 c -2.059,0.064 -4.244,0.036 -6.347,0.036 m -2.274,1.087 c 2.973,0 5.851,-0.016 8.773,-0.016 C 0.504,4.19 1.287,3.195 2.23,2.235 3.094,1.357 4.145,0.567 4.357,-0.978 4.482,-1.882 4.393,-2.928 4.393,-3.946 v -5.938 c 0,-1.512 0.271,-3.325 -1.065,-3.528 H -9.915 c -0.463,0.173 -0.835,0.419 -0.995,0.943 -0.132,0.433 -0.069,1.327 -0.069,2.026 V 1.502 c 0,0.72 -0.094,1.5 0.035,1.991 0.13,0.502 0.739,0.942 1.225,0.948"
             style="fill:#000000;fill-opacity:1;fill-rule:evenodd;stroke:none"
             id="path20" /></g><g
           id="g22"
           transform="translate(19.3833,16.501)"><path
             d="M 0,0 C 0.521,-0.158 1.631,-0.435 2.023,-0.034 2.262,0.207 2.322,0.749 2.195,1.084 1.857,1.97 -0.459,1.596 -1.373,1.502 -2.524,2.17 -3.274,3.245 -3.774,4.576 -3.64,5.158 -3.542,5.844 -3.466,6.567 -3.387,7.31 -3.384,8.203 -3.877,8.419 -4.211,8.563 -4.844,8.445 -5.01,8.173 -5.298,7.701 -5.146,6.789 -5.044,6.147 -4.994,5.835 -4.909,5.517 -4.838,5.205 -4.767,4.891 -4.62,4.483 -4.632,4.262 -4.651,3.938 -4.941,3.512 -5.112,3.145 -5.67,1.951 -6.194,0.941 -6.76,-0.069 -7.358,-0.36 -7.885,-0.646 -8.44,-1.082 -8.81,-1.373 -9.687,-2.03 -9.504,-2.759 c 0.084,-0.334 0.724,-0.531 1.098,-0.454 1.217,0.252 1.861,2.157 2.539,2.969 1.299,0.424 2.694,0.751 4.151,1.014 C -1.215,0.477 -0.675,0.206 0,0 M -1.17,10.827 C -1.17,9.233 -1.193,8.125 -1.193,6.529 0.37,6.529 1.83,6.478 3.393,6.478 3.43,2.598 3.4,-1.749 3.355,-5.547 c -1.115,-0.022 -2.241,-0.004 -3.412,0 -3.481,0.013 -7.177,-0.03 -10.528,0 -0.191,0.569 -0.185,0.911 -0.185,1.622 V 8.881 c 0,0.763 -0.157,1.834 0.332,1.959 0.66,0.169 1.657,0.056 2.309,0.056 2.263,0 4.743,0 6.959,-0.069"
             style="fill:#84bd9f;fill-opacity:1;fill-rule:evenodd;stroke:none"
             id="path24" /></g><g
           id="g26"
           transform="translate(18.8345,27.0586)"><path
             d="M 0,0 C 0.068,0.012 0.073,-0.04 0.128,-0.043 0.666,-0.605 1.229,-1.202 1.795,-1.777 2.35,-2.338 2.988,-2.851 3.377,-3.467 H 0 Z"
             style="fill:#84bd9f;fill-opacity:1;fill-rule:evenodd;stroke:none"
             id="path28" /></g><g
           id="g30"
           transform="translate(10.7021,13.917)"><path
             d="M 0,0 C 0.587,0.461 1.129,1.156 1.442,1.781 0.939,1.232 0.223,0.718 0,0 M 10.464,3.144 C 10.328,3.633 9.148,3.55 8.475,3.492 9.05,3.342 9.764,2.822 10.464,3.144 M 3.157,3.073 C 4.1,3.406 5.112,3.668 6.142,3.912 5.418,4.386 4.973,5.144 4.46,5.833 4.115,4.823 3.637,3.947 3.157,3.073 M 4.598,8.348 C 4.858,8.93 5.001,10.228 4.46,10.618 4.322,9.921 4.383,8.907 4.598,8.348 M 6.965,3.354 C 5.508,3.091 4.113,2.764 2.814,2.34 2.136,1.528 1.492,-0.377 0.275,-0.629 c -0.374,-0.077 -1.014,0.12 -1.098,0.454 -0.183,0.729 0.694,1.386 1.064,1.677 0.555,0.436 1.082,0.722 1.68,1.013 0.566,1.01 1.09,2.02 1.648,3.214 C 3.74,6.096 4.03,6.522 4.049,6.846 4.062,7.067 3.915,7.475 3.843,7.789 3.772,8.101 3.688,8.419 3.637,8.731 3.535,9.373 3.383,10.285 3.671,10.757 3.837,11.029 4.47,11.146 4.804,11.003 5.297,10.787 5.294,9.894 5.215,9.151 5.139,8.428 5.041,7.742 4.907,7.16 5.407,5.829 6.157,4.754 7.308,4.086 8.222,4.18 10.539,4.554 10.876,3.668 11.003,3.333 10.943,2.791 10.705,2.55 10.312,2.149 9.203,2.426 8.681,2.584 8.006,2.79 7.466,3.061 6.965,3.354"
             style="fill:#ffffff;fill-opacity:1;fill-rule:evenodd;stroke:none"
             id="path32" /></g><g
           id="g34"
           transform="translate(15.1626,24.5352)"><path
             d="M 0,0 C 0.541,-0.391 0.397,-1.688 0.138,-2.271 -0.078,-1.711 -0.139,-0.697 0,0"
             style="fill:#84bd9f;fill-opacity:1;fill-rule:evenodd;stroke:none"
             id="path36" /></g><g
           id="g38"
           transform="translate(15.1626,19.75)"><path
             d="M 0,0 C 0.512,-0.689 0.958,-1.447 1.682,-1.921 0.651,-2.165 -0.36,-2.427 -1.304,-2.76 -0.824,-1.886 -0.346,-1.01 0,0"
             style="fill:#84bd9f;fill-opacity:1;fill-rule:evenodd;stroke:none"
             id="path40" /></g><g
           id="g42"
           transform="translate(19.1772,17.4092)"><path
             d="M 0,0 C 0.673,0.058 1.853,0.141 1.989,-0.349 1.289,-0.67 0.575,-0.15 0,0"
             style="fill:#84bd9f;fill-opacity:1;fill-rule:evenodd;stroke:none"
             id="path44" /></g><g
           id="g46"
           transform="translate(12.144,15.6982)"><path
             d="M 0,0 C -0.313,-0.625 -0.854,-1.32 -1.442,-1.781 -1.219,-1.063 -0.503,-0.549 0,0"
             style="fill:#84bd9f;fill-opacity:1;fill-rule:evenodd;stroke:none"
             id="path48" /></g><g
           id="g50"
           transform="translate(27.8657,10.1973)"><path
             d="m 0,0 c -4.213,0.315 -9.183,-0.004 -11.293,-2.354 -1.066,0.976 -0.449,3.328 0.605,4.216 1.077,0.91 3.69,0.803 5.143,1.079 C -4,2.053 -1.594,1.165 0,0"
             style="fill:#ffffff;fill-opacity:1;fill-rule:evenodd;stroke:none"
             id="path52" /></g><g
           id="g54"
           transform="translate(20.1011,7.5498)"><path
             d="M 0,0 C 1.784,0.506 4.485,0.333 6.353,-0.099 4.673,0.395 1.618,0.891 0,0 M 8.772,0.49 C 5.968,0.677 2.054,1.109 -0.907,0.588 -1.504,0.484 -2.282,0.485 -2.622,0 0.653,0.758 5.489,0.645 9.177,0 9.269,-0.466 9.288,-1.493 9.29,-1.783 8.147,-1.712 1.403,-0.968 -2.622,-1.078 -2.844,-0.772 -3.101,-0.499 -3.227,-0.099 -2.083,1.416 0.923,2.37 3.833,2.45 4.567,2.472 5.841,2.536 6.353,2.353 7.106,2.085 7.979,0.834 8.772,0.49"
             style="fill:#ffffff;fill-opacity:1;fill-rule:evenodd;stroke:none"
             id="path56" /></g><g
           id="g58"
           transform="translate(14.7573,8.5303)"><path
             d="m 0,0 c -3.408,0.488 -7.314,-0.43 -10.587,-0.98 1.379,1.535 4.658,1.221 6.755,2.058 C -2.607,0.668 -1.311,0.329 0,0"
             style="fill:#ffffff;fill-opacity:1;fill-rule:evenodd;stroke:none"
             id="path60" /></g><g
           id="g62"
           transform="translate(15.7656,8.04)"><path
             d="M 0,0 C -0.271,-0.225 -0.611,0.317 -1.11,0.197 -0.859,0.575 -0.363,0.092 0,0"
             style="fill:#ffffff;fill-opacity:1;fill-rule:evenodd;stroke:none"
             id="path64" /></g><g
           id="g66"
           transform="translate(5.7827,6.9609)"><path
             d="M 0,0 C 0.392,0.628 1.584,0.564 2.521,0.688 3.767,0.85 4.875,1.089 6.353,1.079 6.278,0.858 5.787,1.041 5.547,0.981 3.776,0.629 1.147,0.638 0,0"
             style="fill:#000000;fill-opacity:1;fill-rule:evenodd;stroke:none"
             id="path68" /></g><g
           id="g70"
           transform="translate(26.4536,7.4512)"><path
             d="M 0,0 C -1.867,0.432 -4.568,0.604 -6.353,0.099 -4.734,0.989 -1.68,0.493 0,0"
             style="fill:#000000;fill-opacity:1;fill-rule:evenodd;stroke:none"
             id="path72" /></g><g
           id="g74"
           transform="translate(16.5723,7.6484)"><path
             d="M 0,0 C 0.147,-0.739 0.441,-1.337 1.209,-1.471 0.938,-2.538 -1.501,-1.974 -1.513,-1.373 -0.993,-0.93 -0.79,-0.181 0,0"
             style="fill:#ffffff;fill-opacity:1;fill-rule:evenodd;stroke:none"
             id="path76" /></g><g
           id="g78"
           transform="translate(14.937,6.0947)"><path
             d="m 0,0 c 0.113,-0.298 0.25,-0.313 -0.784,-0.309 -2.819,0.011 -6.753,0.184 -9.781,0.098 2.227,0.269 5.383,0.411 7.886,0.478 C -0.359,0.328 -0.186,0.653 0,0"
             style="fill:#ffffff;fill-opacity:1;fill-rule:evenodd;stroke:none"
             id="path80" /></g><g
           id="g82"
           transform="translate(22.1196,6.0791)"><path
             d="M 0,0 C -0.803,-0.879 -2.781,-0.029 -4.237,-0.293 -4.184,-0.215 -4.132,-0.135 -4.136,0 -3.211,0.071 -1.473,-0.04 0,0"
             style="fill:#ffffff;fill-opacity:1;fill-rule:evenodd;stroke:none"
             id="path84" /></g><g
           id="g86"
           transform="translate(22.1196,5.6875)"><path
             d="M 0,0 C 0.629,-0.707 -0.014,-1.789 -0.305,-2.451 -0.551,-1.688 -0.406,-0.458 0,0"
             style="fill:#ffffff;fill-opacity:1;fill-rule:evenodd;stroke:none"
             id="path88" /></g><g
           id="g90"
           transform="translate(5.5815,5.3936)"><path
             d="M 0,0 H 0.302 C 0.389,-0.352 0.587,-1.379 0.201,-1.569 -0.244,-1.414 0.116,-0.476 0,0"
             style="fill:#000000;fill-opacity:1;fill-rule:evenodd;stroke:none"
             id="path92" /></g><g
           id="g94"
           transform="translate(6.3882,5.3936)"><path
             d="M 0,0 H 0.403 C 0.387,-0.792 0.369,-0.998 0.403,-1.766 -0.309,-1.739 0.111,-0.612 0,0"
             style="fill:#000000;fill-opacity:1;fill-rule:evenodd;stroke:none"
             id="path96" /></g><g
           id="g98"
           transform="translate(5.5815,12.7461)"><path
             d="m 0,0 c 0.373,0.455 0.974,0.688 1.21,1.274 3.595,-1.47 7.519,-2.624 9.277,-5.882 -0.421,0.274 -0.98,0.501 -1.512,0.784 C 6.559,-2.537 3.627,-0.599 0,0"
             style="fill:#ffffff;fill-opacity:1;fill-rule:evenodd;stroke:none"
             id="path100" /></g><g
           id="g102"
           transform="translate(21.8149,3.2363)"><path
             d="M 0,0 C 0.291,0.662 0.934,1.744 0.305,2.451 -0.102,1.993 -0.246,0.764 0,0 m -13.813,0.49 c -0.086,0.282 0.058,1.183 0,1.764 -1.293,0.132 -3.159,0.177 -4.336,0.099 V 0.392 C -12.882,0.405 -8.554,-0.119 -2.822,0 -2.893,0.385 -3.139,1.552 -2.723,1.765 -2.531,1.297 -2.649,0.527 -2.52,0 h 2.219 c 0.016,0.703 -0.06,1.496 0.1,2.059 -4.163,0.022 -8.399,0.258 -13.007,0.195 -0.156,-0.534 0.339,-1.701 -0.303,-1.764 0.181,0.518 0.029,0.017 -0.302,0 m 9.982,2.353 C -3.828,2.708 -3.879,2.628 -3.932,2.55 c 1.455,0.263 3.434,-0.586 4.237,0.293 -1.473,-0.04 -3.211,0.071 -4.136,0 m -6.23,0.21 c -2.5,-0.115 -5.155,-0.137 -7.382,-0.406 3.028,0.086 6.923,-0.088 9.806,-0.03 0.009,0 1.249,-0.163 0.68,0.226 -0.102,0.591 0.103,0.263 -1.519,0.21 -0.106,-0.004 -1.512,0.003 -1.585,0 M -6.756,3.039 C -6.744,2.438 -4.304,1.874 -4.033,2.941 -4.801,3.075 -5.096,3.673 -5.243,4.412 -6.032,4.231 -6.236,3.482 -6.756,3.039 m -0.403,1.962 c 0.498,0.12 0.839,-0.422 1.11,-0.197 -0.364,0.092 -0.86,0.575 -1.11,0.197 M -17.746,4.02 c -0.225,-0.327 -1.184,-0.914 -0.907,-1.079 2.705,0.074 5.694,0.27 8.469,0.392 1.547,0.069 3.411,-0.067 4.135,0.98 -3.22,1.824 -7.99,0.04 -11.697,-0.293 m 6.856,2.352 c -2.096,-0.837 -5.376,-0.523 -6.755,-2.059 3.273,0.551 7.179,1.469 10.587,0.981 -1.31,0.329 -2.607,0.668 -3.832,1.078 M 4.639,6.666 C 4.127,6.85 2.854,6.785 2.119,6.764 -0.791,6.684 -3.797,5.729 -4.94,4.215 -4.814,3.814 -4.558,3.541 -4.335,3.235 -0.311,3.346 4.434,2.796 7.92,2.572 7.652,2.574 7.895,2.806 7.766,2.941 7.691,3.424 7.555,3.848 7.463,4.313 c -3.688,0.645 -8.524,0.758 -11.798,0 0.339,0.486 1.117,0.485 1.714,0.588 C 0.34,5.423 4.254,4.99 7.059,4.804 6.266,5.147 5.393,6.398 4.639,6.666 m -16.335,1.177 c -1.437,0.595 -2.971,1.098 -4.739,1.373 -0.249,-0.473 -0.797,-0.856 -0.605,-1.471 3.447,-0.195 6.11,-1.074 8.773,-1.667 -1.088,0.479 -2.152,0.982 -3.127,1.569 -0.015,-0.116 0.019,-0.279 -0.1,-0.293 -1.174,0.577 -2.297,0.983 -3.026,0.685 0.402,-0.116 0.895,-0.226 1.715,-0.489 0.25,-0.128 0.809,-0.079 0.605,-0.393 -0.918,0.382 -2.87,0.775 -3.297,0.862 -0.306,0.035 -1.056,0.082 -1.039,0.315 0.664,0.042 1.68,-0.458 2.118,0 -0.234,0.031 -1.239,0.127 -1.311,0.489 1.464,-0.144 2.827,-0.91 4.033,-0.98 M 0.506,9.902 C -0.947,9.626 -3.561,9.733 -4.638,8.823 -5.691,7.935 -6.309,5.583 -5.243,4.607 -3.132,6.957 1.838,7.276 6.051,6.961 4.457,8.126 2.051,9.014 0.506,9.902 M -7.259,5.686 c 0.533,-0.284 1.092,-0.51 1.512,-0.785 -1.757,3.259 -5.681,4.412 -9.276,5.883 -0.236,-0.587 -0.837,-0.819 -1.21,-1.274 3.627,-0.599 6.558,-2.537 8.974,-3.824 M -6.15,6.274 C -5.822,6.781 -6,7.334 -5.747,7.843 -4.814,9.725 -2.559,9.985 0,10.099 1.104,10.147 1.01,9.934 1.816,9.51 3.545,8.604 6.123,7.959 6.959,6.569 H 5.244 C 6.385,5.641 7.902,5.116 7.875,3.331 7.865,3.106 7.92,2.93 7.828,2.528 5.855,2.305 3.395,2.864 0.707,2.843 0.881,1.021 0.84,0.827 0.154,-0.546 c -6.352,0.033 -12.444,0.36 -18.717,0.471 0.004,0.878 -0.012,1.638 -0.081,2.587 -0.46,-0.04 -0.663,-0.014 -1.22,0.038 0.975,1.143 2.218,2.027 3.328,3.038 1.755,0.188 3.244,0.638 4.941,0.884 -1.624,0.708 -4.025,0.661 -5.949,1.078 0.078,0.842 0.38,0.877 0.403,1.372 0.297,0.499 1.344,1.343 2.016,2.059 3.524,-1.05 6.629,-2.51 8.975,-4.707"
             style="fill:#000000;fill-opacity:1;fill-rule:evenodd;stroke:none"
             id="path104" /></g><g
           id="g106"
           transform="translate(6.0859,12.0596)"><path
             d="m 0,0 c 0.072,-0.362 1.077,-0.458 1.311,-0.489 -0.136,-0.452 -1.454,0.042 -2.118,0 -0.014,-0.187 0.752,-0.271 1.077,-0.331 0.476,-0.101 2.486,-0.409 3.259,-0.846 0.204,0.313 -0.355,0.265 -0.605,0.393 -0.193,0.08 -0.583,0.171 -0.659,0.198 -0.259,0.088 -1.057,0.274 -1.329,0.339 0.492,0.329 1.935,-0.058 3.299,-0.734 0.119,0.015 0.085,0.178 0.1,0.294 0.975,-0.588 2.039,-1.091 3.127,-1.569 -2.663,0.593 -5.326,1.472 -8.773,1.667 -0.192,0.615 0.356,0.998 0.605,1.471 C 1.063,0.118 2.596,-0.385 4.033,-0.98 2.827,-0.91 1.464,-0.145 0,0"
             style="fill:#ffffff;fill-opacity:1;fill-rule:evenodd;stroke:none"
             id="path108" /></g><g
           id="g110"
           transform="translate(6.7915,3.6279)"><path
             d="M 0,0 C -0.034,0.768 -0.017,0.974 0,1.766 H -0.403 C -0.292,1.153 -0.712,0.026 0,0 m -1.009,0.196 c 0.386,0.191 0.188,1.218 0.101,1.57 H -1.21 C -1.094,1.29 -1.454,0.352 -1.009,0.196 M 1.512,0.099 C 2.154,0.161 1.659,1.328 1.815,1.862 6.464,1.847 10.724,1.748 14.865,1.686 14.703,1.123 14.738,0.312 14.723,-0.392 h -2.219 c -0.13,0.528 -0.012,1.297 -0.203,1.765 -0.416,-0.213 -0.17,-1.38 -0.1,-1.765 C 6.469,-0.511 2.141,0.014 -3.126,0 v 1.961 c 1.177,0.078 3.043,0.033 4.336,-0.099 0.059,-0.581 -0.085,-1.481 0,-1.763 0.331,0.016 0.434,2.507 0.302,0"
             style="fill:#84bd9f;fill-opacity:1;fill-rule:evenodd;stroke:none"
             id="path112" /></g><g
           id="g114"
           transform="translate(11.3296,7.9424)"><path
             d="M 0,0 C 0.24,0.06 0.731,-0.123 0.806,0.098 -0.672,0.107 -1.78,-0.132 -3.026,-0.294 -3.962,-0.417 -5.155,-0.354 -5.547,-0.981 -4.399,-0.344 -1.771,-0.353 0,0 M 4.436,-0.393 C 3.712,-1.44 1.849,-1.304 0.301,-1.373 c -2.775,-0.122 -5.763,-0.318 -8.469,-0.392 -0.276,0.165 0.683,0.752 0.908,1.078 3.707,0.333 8.476,2.118 11.696,0.294"
             style="fill:#ffffff;fill-opacity:1;fill-rule:evenodd;stroke:none"
             id="path116" /></g><g
           id="g118"
           transform="translate(29.5571,6.4307)"><path
             d="m 0,0 c -0.453,0.125 -0.949,0.199 -1.426,0.272 -0.09,0.013 -0.181,0.027 -0.271,0.041 -2.301,0.356 -4.051,0.526 -5.51,0.535 V 0.945 C -5.742,0.938 -3.986,0.768 -1.68,0.41 -1.592,0.396 -1.5,0.383 -1.41,0.368 -0.93,0.296 -0.434,0.222 0.027,0.095 Z"
             style="fill:#000000;fill-opacity:1;fill-rule:nonzero;stroke:none"
             id="path120" /></g><g
           id="g122"
           transform="translate(3.4253,6.3818)"><path
             d="M 0,0 C 0.538,0.126 1.121,0.2 1.686,0.272 1.792,0.285 1.899,0.3 2.005,0.313 4.722,0.669 6.791,0.839 8.515,0.848 L 8.514,0.945 C 6.784,0.938 4.709,0.767 1.987,0.41 1.881,0.396 1.774,0.383 1.667,0.368 1.099,0.296 0.512,0.222 -0.032,0.095 Z"
             style="fill:#000000;fill-opacity:1;fill-rule:nonzero;stroke:none"
             id="path124" /></g><g
           id="g126"
           transform="translate(29.7114,2.3174)"><path
             d="m 0,0 c 0,-0.227 -0.154,-0.409 -0.342,-0.409 h -27.639 c -0.19,0 -0.342,0.182 -0.342,0.409 v 27.528 c 0,0.227 0.152,0.409 0.342,0.409 H -0.342 C -0.154,27.937 0,27.755 0,27.528 Z"
             style="fill:none;stroke:#772e18;stroke-width:1;stroke-linecap:butt;stroke-linejoin:miter;stroke-miterlimit:10;stroke-dasharray:none;stroke-opacity:1"
             id="path128" /></g><g
           id="g130"
           transform="translate(15.8555,12.3262)"><path
             d="M 0,0 -0.01,0.096 11.979,1.955 12.036,1.683 Z"
             style="fill:#ffffff;fill-opacity:1;fill-rule:evenodd;stroke:none"
             id="path132" /></g><g
           id="g134"
           transform="translate(15.9863,12.3926)"><path
             d="M 0,0 C 1.133,0.327 8.282,1.248 11.825,1.797 11.833,1.76 11.86,1.717 11.866,1.68 9.243,1.274 1.427,0.146 0,0 M 12.116,2.022 C 8.633,1.43 1.344,0.495 -1.949,-0.088 c -0.6,-0.107 -0.793,-0.292 -1.407,-0.451 0.669,0.025 0.942,-0.128 1.421,-0.067 2.815,0.359 11.48,1.568 14.203,1.966 -0.019,0.123 -0.135,0.54 -0.152,0.662"
             style="fill:#000000;fill-opacity:1;fill-rule:evenodd;stroke:none"
             id="path136" /></g></g></g></g></svg>
