<?xml version="1.0" encoding="UTF-8" standalone="no"?>
<!-- Created with Inkscape (http://www.inkscape.org/) -->

<svg
   version="1.1"
   id="svg2"
   xml:space="preserve"
   width="16"
   height="16"
   viewBox="0 0 41.216801 41.835335"
   sodipodi:docname="artikel pdf-button.ai.svg"
   inkscape:version="1.1 (ce6663b3b7, 2021-05-25)"
   xmlns:inkscape="http://www.inkscape.org/namespaces/inkscape"
   xmlns:sodipodi="http://sodipodi.sourceforge.net/DTD/sodipodi-0.dtd"
   xmlns="http://www.w3.org/2000/svg"
   xmlns:svg="http://www.w3.org/2000/svg"><defs
     id="defs6"><clipPath
       clipPathUnits="userSpaceOnUse"
       id="clipPath16"><path
         d="M 0,31.376 H 30.913 V 0 H 0 Z"
         id="path14" /></clipPath></defs><sodipodi:namedview
     id="namedview4"
     pagecolor="#ffffff"
     bordercolor="#666666"
     borderopacity="1.0"
     inkscape:pageshadow="2"
     inkscape:pageopacity="0.0"
     inkscape:pagecheckerboard="0"
     showgrid="false"
     inkscape:zoom="20.174334"
     inkscape:cx="20.620259"
     inkscape:cy="20.892883"
     inkscape:window-width="1848"
     inkscape:window-height="1016"
     inkscape:window-x="72"
     inkscape:window-y="27"
     inkscape:window-maximized="1"
     inkscape:current-layer="g8" /><g
     id="g8"
     inkscape:groupmode="layer"
     inkscape:label="artikel pdf-button"
     transform="matrix(1.3333333,0,0,-1.3333333,0,41.835333)"><g
       id="g10"><g
         id="g12"
         clip-path="url(#clipPath16)"><g
           id="g18"
           transform="translate(19.5464,24.0596)"><path
             d="M 0,0 H 2.71 C 2.398,0.496 1.886,0.909 1.44,1.361 0.987,1.825 0.535,2.306 0.103,2.76 0.06,2.762 0.056,2.804 0,2.794 Z m -7.444,3.354 c -0.607,0 -1.516,0.155 -2.127,0 -0.455,-0.117 -0.31,-1.11 -0.31,-1.818 v -11.874 c 0,-0.66 -0.075,-1.359 0.103,-1.886 3.131,-0.129 6.601,-0.069 9.812,-0.069 1.088,0 2.181,-0.087 3.192,0.103 0.136,3.541 0.068,7.474 0.033,11.072 h -4.357 v 4.436 c -2.059,0.064 -4.244,0.036 -6.346,0.036 m -2.275,1.087 c 2.974,0 5.851,-0.016 8.773,-0.016 C 0.505,4.19 1.287,3.195 2.23,2.235 3.093,1.357 4.145,0.567 4.357,-0.978 4.481,-1.882 4.392,-2.928 4.392,-3.946 v -5.938 c 0,-1.512 0.271,-3.325 -1.064,-3.528 H -9.915 c -0.463,0.173 -0.834,0.419 -0.995,0.943 -0.132,0.433 -0.069,1.327 -0.069,2.026 V 1.502 c 0,0.72 -0.094,1.5 0.035,1.991 0.131,0.502 0.74,0.942 1.225,0.948"
             style="fill:#000000;fill-opacity:1;fill-rule:evenodd;stroke:none"
             id="path20" /></g><g
           id="g22"
           transform="translate(19.8892,16.9688)"><path
             d="m 0,0 c 0.523,-0.158 1.633,-0.435 2.024,-0.034 0.238,0.241 0.3,0.783 0.172,1.118 -0.339,0.886 -2.654,0.512 -3.568,0.418 -1.151,0.668 -1.901,1.743 -2.401,3.074 0.134,0.582 0.232,1.268 0.308,1.991 0.078,0.743 0.082,1.636 -0.412,1.852 C -4.21,8.563 -4.844,8.445 -5.009,8.173 -5.297,7.701 -5.146,6.789 -5.043,6.147 -4.992,5.835 -4.908,5.517 -4.837,5.205 -4.766,4.891 -4.619,4.483 -4.631,4.262 -4.65,3.938 -4.939,3.512 -5.111,3.145 -5.67,1.951 -6.193,0.941 -6.759,-0.069 c -0.598,-0.291 -1.126,-0.577 -1.68,-1.013 -0.37,-0.291 -1.247,-0.948 -1.064,-1.677 0.083,-0.334 0.724,-0.531 1.098,-0.454 1.217,0.252 1.86,2.157 2.539,2.969 1.299,0.424 2.694,0.751 4.151,1.014 C -1.215,0.477 -0.674,0.206 0,0 m -1.17,10.827 c 0,-1.594 -0.022,-2.702 -0.022,-4.298 1.563,0 3.023,-0.051 4.587,-0.051 0.037,-3.88 0.007,-8.227 -0.04,-12.025 -1.114,-0.022 -2.24,-0.004 -3.41,0 -3.482,0.013 -7.178,-0.03 -10.529,0 -0.191,0.569 -0.185,0.911 -0.185,1.622 V 8.881 c 0,0.763 -0.157,1.834 0.332,1.959 0.66,0.169 1.658,0.056 2.308,0.056 2.264,0 4.744,0 6.959,-0.069"
             style="fill:#ffffff;fill-opacity:1;fill-rule:evenodd;stroke:none"
             id="path24" /></g><g
           id="g26"
           transform="translate(19.3413,27.5264)"><path
             d="m 0,0 c 0.069,0.012 0.073,-0.04 0.128,-0.043 0.539,-0.562 1.1,-1.159 1.666,-1.734 0.555,-0.561 1.193,-1.074 1.582,-1.69 l -3.376,0 z"
             style="fill:#ffffff;fill-opacity:1;fill-rule:evenodd;stroke:none"
             id="path28" /></g><g
           id="g30"
           transform="translate(11.2095,14.3848)"><path
             d="M 0,0 C 0.587,0.461 1.129,1.156 1.441,1.781 0.938,1.232 0.223,0.718 0,0 M 10.464,3.144 C 10.327,3.633 9.148,3.55 8.475,3.492 9.049,3.342 9.764,2.822 10.464,3.144 M 3.156,3.073 C 4.1,3.406 5.111,3.668 6.142,3.912 5.418,4.386 4.973,5.144 4.46,5.833 4.114,4.823 3.637,3.947 3.156,3.073 M 4.598,8.348 C 4.857,8.93 5,10.228 4.46,10.618 4.321,9.921 4.383,8.907 4.598,8.348 M 6.965,3.354 C 5.508,3.091 4.112,2.764 2.813,2.34 2.135,1.528 1.492,-0.377 0.274,-0.629 -0.1,-0.706 -0.74,-0.509 -0.823,-0.175 -1.006,0.554 -0.129,1.211 0.24,1.502 0.795,1.938 1.322,2.224 1.921,2.515 2.486,3.525 3.01,4.535 3.568,5.729 3.74,6.096 4.029,6.522 4.049,6.846 4.061,7.067 3.914,7.475 3.843,7.789 3.771,8.101 3.688,8.419 3.637,8.731 3.534,9.373 3.383,10.285 3.671,10.757 3.836,11.029 4.47,11.146 4.803,11.003 5.297,10.787 5.293,9.894 5.215,9.151 5.139,8.428 5.041,7.742 4.906,7.16 5.406,5.829 6.156,4.754 7.308,4.086 8.222,4.18 10.537,4.554 10.876,3.668 11.004,3.333 10.941,2.791 10.704,2.55 10.313,2.149 9.203,2.426 8.68,2.584 8.006,2.79 7.465,3.061 6.965,3.354"
             style="fill:#84bd9f;fill-opacity:1;fill-rule:evenodd;stroke:none"
             id="path32" /></g><g
           id="g34"
           transform="translate(15.6694,25.0029)"><path
             d="M 0,0 C 0.54,-0.391 0.397,-1.688 0.138,-2.271 -0.077,-1.711 -0.139,-0.697 0,0"
             style="fill:#ffffff;fill-opacity:1;fill-rule:evenodd;stroke:none"
             id="path36" /></g><g
           id="g38"
           transform="translate(15.6694,20.2178)"><path
             d="M 0,0 C 0.513,-0.689 0.958,-1.447 1.682,-1.921 0.651,-2.165 -0.36,-2.427 -1.304,-2.76 -0.823,-1.886 -0.346,-1.01 0,0"
             style="fill:#ffffff;fill-opacity:1;fill-rule:evenodd;stroke:none"
             id="path40" /></g><g
           id="g42"
           transform="translate(19.6841,17.877)"><path
             d="M 0,0 C 0.674,0.058 1.853,0.141 1.989,-0.349 1.289,-0.67 0.574,-0.15 0,0"
             style="fill:#ffffff;fill-opacity:1;fill-rule:evenodd;stroke:none"
             id="path44" /></g><g
           id="g46"
           transform="translate(12.6509,16.166)"><path
             d="M 0,0 C -0.313,-0.625 -0.854,-1.32 -1.441,-1.781 -1.219,-1.063 -0.503,-0.549 0,0"
             style="fill:#ffffff;fill-opacity:1;fill-rule:evenodd;stroke:none"
             id="path48" /></g><g
           id="g50"
           transform="translate(29.7739,2.3467)"><path
             d="m 0,0 c 0,-0.228 -0.153,-0.41 -0.343,-0.41 h -27.662 c -0.189,0 -0.342,0.182 -0.342,0.41 v 27.526 c 0,0.227 0.153,0.41 0.342,0.41 h 27.662 c 0.19,0 0.343,-0.183 0.343,-0.41 z"
             style="fill:none;stroke:#772e18;stroke-width:1;stroke-linecap:butt;stroke-linejoin:miter;stroke-miterlimit:10;stroke-dasharray:none;stroke-opacity:1"
             id="path52" /></g><g
           id="g54"
           transform="translate(24.0112,2.5889)"><path
             d="M 0,0 C 0.649,0.709 0.036,2.64 0.442,3.581 2.093,4.43 3.284,6.433 2.507,9.168 -4.179,8.981 -11.575,9.544 -17.692,8.881 -18.387,8.027 -18.237,5.864 -17.546,5.157 -11.746,5.062 -5.554,5.349 0,5.013 -6.685,4.919 -13.761,5.203 -20.2,4.871 -20.579,3.527 -20.159,1.773 -20.052,0.43 -19.401,-0.037 0.674,-0.062 0,0"
             style="fill:#ffffff;fill-opacity:1;fill-rule:evenodd;stroke:none"
             id="path56" /></g><g
           id="g58"
           transform="translate(16.6392,9.1777)"><path
             d="M 0,0 C -0.094,0.577 0.191,1.524 -0.146,1.862 -0.217,1.322 -0.51,0.395 0,0 M -0.59,0 C -0.684,0.577 -0.398,1.524 -0.737,1.862 -0.813,1.489 -1.207,0.117 -0.59,0 m -0.736,0 c 0.201,0.336 0.275,1.538 0,1.862 -0.201,-0.335 -0.277,-1.538 0,-1.862 m -2.949,0.573 c 0.281,-0.061 0.371,-0.307 0.736,-0.286 0.15,0.911 -0.107,1.139 0.296,1.575 h -0.591 c 0.039,-0.61 0.08,-1.223 -0.441,-1.289 M 9.584,2.435 c 0.243,-0.861 0.12,-2.08 0.148,-3.151 -6.779,0.075 -13.889,-0.155 -20.052,0.144 -0.25,0.937 -0.169,2.337 0.441,2.864 6.19,0.155 12.678,-0.141 19.463,0.143"
             style="fill:#84bd9f;fill-opacity:1;fill-rule:evenodd;stroke:none"
             id="path60" /></g><g
           id="g62"
           transform="translate(12.8052,11.04)"><path
             d="M 0,0 H 0.591 C 0.188,-0.437 0.445,-0.664 0.295,-1.575 -0.07,-1.597 -0.16,-1.351 -0.441,-1.289 0.08,-1.224 0.039,-0.61 0,0"
             style="fill:#000000;fill-opacity:1;fill-rule:evenodd;stroke:none"
             id="path64" /></g><g
           id="g66"
           transform="translate(15.313,11.04)"><path
             d="M 0,0 C 0.275,-0.324 0.201,-1.526 0,-1.862 -0.276,-1.538 -0.201,-0.335 0,0"
             style="fill:#000000;fill-opacity:1;fill-rule:evenodd;stroke:none"
             id="path68" /></g><g
           id="g70"
           transform="translate(15.9019,11.04)"><path
             d="M 0,0 C 0.339,-0.338 0.054,-1.285 0.147,-1.862 -0.47,-1.745 -0.075,-0.373 0,0"
             style="fill:#000000;fill-opacity:1;fill-rule:evenodd;stroke:none"
             id="path72" /></g><g
           id="g74"
           transform="translate(16.4927,11.04)"><path
             d="M 0,0 C 0.338,-0.338 0.053,-1.285 0.146,-1.862 -0.363,-1.468 -0.07,-0.54 0,0"
             style="fill:#000000;fill-opacity:1;fill-rule:evenodd;stroke:none"
             id="path76" /></g><g
           id="g78"
           transform="translate(13.1001,4.4512)"><path
             d="M 0,0 C -0.154,0.52 0.336,1.662 -0.295,1.719 -0.141,1.201 -0.629,0.058 0,0 M -2.358,0 C -2.361,0.43 -2.033,1.774 -2.506,2.006 -2.588,1.598 -2.974,0.153 -2.358,0 M -2.949,0 C -3.043,0.624 -2.756,1.619 -3.096,2.006 -3.234,1.653 -3.523,0.114 -2.949,0 m 2.213,-0.43 c -0.177,0.832 0.365,2.362 -0.295,2.722 0.037,-0.795 -0.599,-2.419 0.295,-2.722 m -2.95,0 c 0.223,0.6 0.262,2.127 0,2.722 -0.22,-0.6 -0.261,-2.128 0,-2.722 M -8.699,2.865 H 10.764 C 11.048,1.661 10.856,-0.007 10.911,-1.433 4.365,-1.346 -2.543,-1.61 -8.846,-1.289 -8.885,-0.113 -9.334,1.36 -8.994,2.436 -9,2.681 -8.883,2.807 -8.699,2.865"
             style="fill:#84bd9f;fill-opacity:1;fill-rule:evenodd;stroke:none"
             id="path80" /></g><g
           id="g82"
           transform="translate(9.4146,6.7432)"><path
             d="M 0,0 C 0.262,-0.595 0.223,-2.122 0,-2.722 -0.262,-2.128 -0.221,-0.6 0,0"
             style="fill:#000000;fill-opacity:1;fill-rule:evenodd;stroke:none"
             id="path84" /></g><g
           id="g86"
           transform="translate(10.0044,6.457)"><path
             d="M 0,0 C 0.34,-0.387 0.053,-1.382 0.146,-2.006 -0.428,-1.892 -0.139,-0.353 0,0"
             style="fill:#000000;fill-opacity:1;fill-rule:evenodd;stroke:none"
             id="path88" /></g><g
           id="g90"
           transform="translate(10.5942,6.457)"><path
             d="M 0,0 C 0.473,-0.231 0.145,-1.576 0.147,-2.006 -0.468,-1.853 -0.082,-0.408 0,0"
             style="fill:#000000;fill-opacity:1;fill-rule:evenodd;stroke:none"
             id="path92" /></g><g
           id="g94"
           transform="translate(12.8052,6.1699)"><path
             d="M 0,0 C 0.631,-0.057 0.141,-1.199 0.295,-1.719 -0.334,-1.661 0.154,-0.518 0,0"
             style="fill:#000000;fill-opacity:1;fill-rule:evenodd;stroke:none"
             id="path96" /></g><g
           id="g98"
           transform="translate(17.229,6.1699)"><path
             d="m 0,0 c 0.295,0 0.373,-0.027 0.669,-0.027 -0.103,-0.116 -0.023,-1.524 0,-1.68 C 0.623,-1.9 0.445,-1.672 0.148,-1.862 -0.221,-1.329 -0.002,-0.584 0,0"
             style="fill:#000000;fill-opacity:1;fill-rule:evenodd;stroke:none"
             id="path100" /></g><g
           id="g102"
           transform="translate(4.106,6.8867)"><path
             d="m 0,0 c -0.34,-1.075 0.109,-2.549 0.148,-3.725 6.303,-0.321 13.211,-0.056 19.757,-0.143 -0.054,1.426 0.137,3.094 -0.147,4.298 H 0.295 C 0.111,0.371 -0.006,0.245 0,0 M 2.654,4.583 C 2.044,4.056 1.963,2.656 2.213,1.719 8.376,1.42 15.486,1.65 22.266,1.575 22.237,2.646 22.36,3.865 22.117,4.726 15.332,4.442 8.844,4.738 2.654,4.583 M 0.691,-4.313 c -0.284,0 -0.787,0.127 -0.837,0.445 -0.108,1.344 -0.528,3.097 -0.149,4.441 6.44,0.332 13.516,0.048 20.2,0.142 C 14.352,1.051 8.159,0.764 2.359,0.859 1.668,1.566 1.519,3.729 2.213,4.583 8.33,5.246 15.727,4.684 22.412,4.87 23.189,2.135 21.998,0.132 20.348,-0.717 19.941,-1.658 20.555,-3.589 19.905,-4.298 18.928,-4.313 1.215,-4.361 0.691,-4.313"
             style="fill:#000000;fill-opacity:1;fill-rule:evenodd;stroke:none"
             id="path104" /></g><g
           id="g106"
           transform="translate(12.0688,6.7432)"><path
             d="M 0,0 C 0.66,-0.36 0.118,-1.89 0.295,-2.722 -0.599,-2.419 0.037,-0.795 0,0"
             style="fill:#000000;fill-opacity:1;fill-rule:evenodd;stroke:none"
             id="path108" /></g></g></g></g></svg>
